<mxfile host="app.diagrams.net" modified="2021-04-21T15:10:48.574Z" agent="5.0 (Windows NT 10.0; Win64; x64) AppleWebKit/537.36 (KHTML, like Gecko) Chrome/89.0.4389.128 Safari/537.36" etag="4VqkC0PVc02lBQGI8dMM" version="14.6.1" type="github">
  <diagram id="R2lEEEUBdFMjLlhIrx00" name="Page-1">
    <mxGraphModel dx="1292" dy="697" grid="1" gridSize="10" guides="1" tooltips="1" connect="1" arrows="1" fold="1" page="1" pageScale="1" pageWidth="850" pageHeight="1100" math="0" shadow="0" extFonts="Permanent Marker^https://fonts.googleapis.com/css?family=Permanent+Marker">
      <root>
        <mxCell id="0" />
        <mxCell id="1" parent="0" />
        <mxCell id="Q6CQhHN_puvQiZFfhHFZ-1" value="customer" style="swimlane;fontStyle=0;childLayout=stackLayout;horizontal=1;startSize=26;horizontalStack=0;resizeParent=1;resizeParentMax=0;resizeLast=0;collapsible=1;marginBottom=0;align=center;fontSize=14;" vertex="1" parent="1">
          <mxGeometry x="10" y="150" width="160" height="86" as="geometry" />
        </mxCell>
        <mxCell id="Q6CQhHN_puvQiZFfhHFZ-2" value="id" style="text;strokeColor=none;fillColor=none;spacingLeft=4;spacingRight=4;overflow=hidden;rotatable=0;points=[[0,0.5],[1,0.5]];portConstraint=eastwest;fontSize=12;fontStyle=4" vertex="1" parent="Q6CQhHN_puvQiZFfhHFZ-1">
          <mxGeometry y="26" width="160" height="30" as="geometry" />
        </mxCell>
        <mxCell id="Q6CQhHN_puvQiZFfhHFZ-3" value="name" style="text;strokeColor=none;fillColor=none;spacingLeft=4;spacingRight=4;overflow=hidden;rotatable=0;points=[[0,0.5],[1,0.5]];portConstraint=eastwest;fontSize=12;" vertex="1" parent="Q6CQhHN_puvQiZFfhHFZ-1">
          <mxGeometry y="56" width="160" height="30" as="geometry" />
        </mxCell>
        <mxCell id="Q6CQhHN_puvQiZFfhHFZ-7" value="car" style="swimlane;fontStyle=0;childLayout=stackLayout;horizontal=1;startSize=26;horizontalStack=0;resizeParent=1;resizeParentMax=0;resizeLast=0;collapsible=1;marginBottom=0;align=center;fontSize=14;" vertex="1" parent="1">
          <mxGeometry x="345" y="165" width="160" height="56" as="geometry" />
        </mxCell>
        <mxCell id="Q6CQhHN_puvQiZFfhHFZ-8" value="license" style="text;strokeColor=none;fillColor=none;spacingLeft=4;spacingRight=4;overflow=hidden;rotatable=0;points=[[0,0.5],[1,0.5]];portConstraint=eastwest;fontSize=12;fontStyle=4" vertex="1" parent="Q6CQhHN_puvQiZFfhHFZ-7">
          <mxGeometry y="26" width="160" height="30" as="geometry" />
        </mxCell>
        <mxCell id="Q6CQhHN_puvQiZFfhHFZ-12" value="own" style="shape=rhombus;perimeter=rhombusPerimeter;whiteSpace=wrap;html=1;align=center;" vertex="1" parent="1">
          <mxGeometry x="190" y="163" width="120" height="60" as="geometry" />
        </mxCell>
        <mxCell id="Q6CQhHN_puvQiZFfhHFZ-17" value="participated" style="shape=rhombus;perimeter=rhombusPerimeter;whiteSpace=wrap;html=1;align=center;" vertex="1" parent="1">
          <mxGeometry x="365" y="240" width="120" height="60" as="geometry" />
        </mxCell>
        <mxCell id="Q6CQhHN_puvQiZFfhHFZ-18" value="" style="shape=link;html=1;" edge="1" parent="1" source="Q6CQhHN_puvQiZFfhHFZ-1" target="Q6CQhHN_puvQiZFfhHFZ-12">
          <mxGeometry width="100" relative="1" as="geometry">
            <mxPoint x="270" y="160" as="sourcePoint" />
            <mxPoint x="370" y="160" as="targetPoint" />
          </mxGeometry>
        </mxCell>
        <mxCell id="Q6CQhHN_puvQiZFfhHFZ-19" value="" style="shape=link;html=1;" edge="1" parent="1" source="Q6CQhHN_puvQiZFfhHFZ-12" target="Q6CQhHN_puvQiZFfhHFZ-7">
          <mxGeometry width="100" relative="1" as="geometry">
            <mxPoint x="280" y="190" as="sourcePoint" />
            <mxPoint x="380" y="190" as="targetPoint" />
          </mxGeometry>
        </mxCell>
        <mxCell id="Q6CQhHN_puvQiZFfhHFZ-20" value="" style="shape=link;html=1;" edge="1" parent="1" source="Q6CQhHN_puvQiZFfhHFZ-17" target="Q6CQhHN_puvQiZFfhHFZ-7">
          <mxGeometry width="100" relative="1" as="geometry">
            <mxPoint x="270" y="160" as="sourcePoint" />
            <mxPoint x="370" y="160" as="targetPoint" />
          </mxGeometry>
        </mxCell>
        <mxCell id="Q6CQhHN_puvQiZFfhHFZ-21" value="accident" style="swimlane;fontStyle=0;childLayout=stackLayout;horizontal=1;startSize=26;horizontalStack=0;resizeParent=1;resizeParentMax=0;resizeLast=0;collapsible=1;marginBottom=0;align=center;fontSize=14;" vertex="1" parent="1">
          <mxGeometry x="345" y="320" width="160" height="116" as="geometry" />
        </mxCell>
        <mxCell id="Q6CQhHN_puvQiZFfhHFZ-22" value="id" style="text;strokeColor=none;fillColor=none;spacingLeft=4;spacingRight=4;overflow=hidden;rotatable=0;points=[[0,0.5],[1,0.5]];portConstraint=eastwest;fontSize=12;fontStyle=4" vertex="1" parent="Q6CQhHN_puvQiZFfhHFZ-21">
          <mxGeometry y="26" width="160" height="30" as="geometry" />
        </mxCell>
        <mxCell id="Q6CQhHN_puvQiZFfhHFZ-23" value="date" style="text;strokeColor=none;fillColor=none;spacingLeft=4;spacingRight=4;overflow=hidden;rotatable=0;points=[[0,0.5],[1,0.5]];portConstraint=eastwest;fontSize=12;" vertex="1" parent="Q6CQhHN_puvQiZFfhHFZ-21">
          <mxGeometry y="56" width="160" height="30" as="geometry" />
        </mxCell>
        <mxCell id="Q6CQhHN_puvQiZFfhHFZ-24" value="location" style="text;strokeColor=none;fillColor=none;spacingLeft=4;spacingRight=4;overflow=hidden;rotatable=0;points=[[0,0.5],[1,0.5]];portConstraint=eastwest;fontSize=12;" vertex="1" parent="Q6CQhHN_puvQiZFfhHFZ-21">
          <mxGeometry y="86" width="160" height="30" as="geometry" />
        </mxCell>
        <mxCell id="Q6CQhHN_puvQiZFfhHFZ-26" value="" style="endArrow=none;html=1;" edge="1" parent="1" source="Q6CQhHN_puvQiZFfhHFZ-21" target="Q6CQhHN_puvQiZFfhHFZ-17">
          <mxGeometry width="50" height="50" relative="1" as="geometry">
            <mxPoint x="300" y="440" as="sourcePoint" />
            <mxPoint x="350" y="390" as="targetPoint" />
          </mxGeometry>
        </mxCell>
        <mxCell id="Q6CQhHN_puvQiZFfhHFZ-27" value="related" style="shape=rhombus;perimeter=rhombusPerimeter;whiteSpace=wrap;html=1;align=center;" vertex="1" parent="1">
          <mxGeometry x="540" y="161" width="120" height="60" as="geometry" />
        </mxCell>
        <mxCell id="Q6CQhHN_puvQiZFfhHFZ-28" value="" style="shape=link;html=1;" edge="1" parent="1" source="Q6CQhHN_puvQiZFfhHFZ-7" target="Q6CQhHN_puvQiZFfhHFZ-27">
          <mxGeometry width="100" relative="1" as="geometry">
            <mxPoint x="270" y="410" as="sourcePoint" />
            <mxPoint x="370" y="410" as="targetPoint" />
          </mxGeometry>
        </mxCell>
        <mxCell id="Q6CQhHN_puvQiZFfhHFZ-29" value="policy" style="swimlane;fontStyle=0;childLayout=stackLayout;horizontal=1;startSize=26;horizontalStack=0;resizeParent=1;resizeParentMax=0;resizeLast=0;collapsible=1;marginBottom=0;align=center;fontSize=14;" vertex="1" parent="1">
          <mxGeometry x="700" y="165" width="160" height="56" as="geometry" />
        </mxCell>
        <mxCell id="Q6CQhHN_puvQiZFfhHFZ-30" value="id" style="text;strokeColor=none;fillColor=none;spacingLeft=4;spacingRight=4;overflow=hidden;rotatable=0;points=[[0,0.5],[1,0.5]];portConstraint=eastwest;fontSize=12;fontStyle=4" vertex="1" parent="Q6CQhHN_puvQiZFfhHFZ-29">
          <mxGeometry y="26" width="160" height="30" as="geometry" />
        </mxCell>
        <mxCell id="Q6CQhHN_puvQiZFfhHFZ-33" value="" style="shape=link;html=1;" edge="1" parent="1" source="Q6CQhHN_puvQiZFfhHFZ-27" target="Q6CQhHN_puvQiZFfhHFZ-29">
          <mxGeometry width="100" relative="1" as="geometry">
            <mxPoint x="270" y="410" as="sourcePoint" />
            <mxPoint x="370" y="410" as="targetPoint" />
          </mxGeometry>
        </mxCell>
        <mxCell id="Q6CQhHN_puvQiZFfhHFZ-34" value="payment" style="shape=rhombus;double=1;perimeter=rhombusPerimeter;whiteSpace=wrap;html=1;align=center;" vertex="1" parent="1">
          <mxGeometry x="720" y="240" width="120" height="60" as="geometry" />
        </mxCell>
        <mxCell id="Q6CQhHN_puvQiZFfhHFZ-35" value="" style="shape=link;html=1;" edge="1" parent="1" source="Q6CQhHN_puvQiZFfhHFZ-29" target="Q6CQhHN_puvQiZFfhHFZ-34">
          <mxGeometry width="100" relative="1" as="geometry">
            <mxPoint x="270" y="410" as="sourcePoint" />
            <mxPoint x="370" y="410" as="targetPoint" />
          </mxGeometry>
        </mxCell>
        <mxCell id="Q6CQhHN_puvQiZFfhHFZ-36" value="premium_payment" style="swimlane;fontStyle=0;childLayout=stackLayout;horizontal=1;startSize=26;horizontalStack=0;resizeParent=1;resizeParentMax=0;resizeLast=0;collapsible=1;marginBottom=0;align=center;fontSize=14;" vertex="1" parent="1">
          <mxGeometry x="700" y="320" width="160" height="146" as="geometry" />
        </mxCell>
        <mxCell id="Q6CQhHN_puvQiZFfhHFZ-42" value="id" style="text;strokeColor=none;fillColor=none;spacingLeft=4;spacingRight=4;overflow=hidden;rotatable=0;points=[[0,0.5],[1,0.5]];portConstraint=eastwest;fontSize=12;fontStyle=4" vertex="1" parent="Q6CQhHN_puvQiZFfhHFZ-36">
          <mxGeometry y="26" width="160" height="30" as="geometry" />
        </mxCell>
        <mxCell id="Q6CQhHN_puvQiZFfhHFZ-37" value="due_date" style="text;strokeColor=none;fillColor=none;spacingLeft=4;spacingRight=4;overflow=hidden;rotatable=0;points=[[0,0.5],[1,0.5]];portConstraint=eastwest;fontSize=12;" vertex="1" parent="Q6CQhHN_puvQiZFfhHFZ-36">
          <mxGeometry y="56" width="160" height="30" as="geometry" />
        </mxCell>
        <mxCell id="Q6CQhHN_puvQiZFfhHFZ-38" value="payment_date" style="text;strokeColor=none;fillColor=none;spacingLeft=4;spacingRight=4;overflow=hidden;rotatable=0;points=[[0,0.5],[1,0.5]];portConstraint=eastwest;fontSize=12;" vertex="1" parent="Q6CQhHN_puvQiZFfhHFZ-36">
          <mxGeometry y="86" width="160" height="30" as="geometry" />
        </mxCell>
        <mxCell id="Q6CQhHN_puvQiZFfhHFZ-39" value="amount" style="text;strokeColor=none;fillColor=none;spacingLeft=4;spacingRight=4;overflow=hidden;rotatable=0;points=[[0,0.5],[1,0.5]];portConstraint=eastwest;fontSize=12;" vertex="1" parent="Q6CQhHN_puvQiZFfhHFZ-36">
          <mxGeometry y="116" width="160" height="30" as="geometry" />
        </mxCell>
        <mxCell id="Q6CQhHN_puvQiZFfhHFZ-40" value="" style="shape=link;html=1;" edge="1" parent="1" source="Q6CQhHN_puvQiZFfhHFZ-34" target="Q6CQhHN_puvQiZFfhHFZ-36">
          <mxGeometry width="100" relative="1" as="geometry">
            <mxPoint x="270" y="410" as="sourcePoint" />
            <mxPoint x="370" y="410" as="targetPoint" />
          </mxGeometry>
        </mxCell>
      </root>
    </mxGraphModel>
  </diagram>
</mxfile>
